<svg width="36" height="36" viewBox="0 0 36 36" fill="none" xmlns="http://www.w3.org/2000/svg">
<g id="Star 2">
<path id="Star 1" d="M16.7753 4.02479C17.1487 2.87569 18.7744 2.87569 19.1477 4.02479L21.6019 11.5778C21.7688 12.0917 22.2477 12.4396 22.7881 12.4396H30.7298C31.938 12.4396 32.4404 13.9858 31.4629 14.696L25.0379 19.364C24.6008 19.6816 24.4179 20.2446 24.5848 20.7584L27.039 28.3115C27.4123 29.4606 26.0971 30.4161 25.1196 29.7059L18.6947 25.0379C18.2575 24.7203 17.6656 24.7203 17.2284 25.0379L10.8034 29.7059C9.82595 30.4161 8.51074 29.4606 8.88411 28.3115L11.3382 20.7584C11.5052 20.2446 11.3223 19.6816 10.8851 19.364L4.46016 14.696C3.48267 13.9858 3.98503 12.4396 5.19328 12.4396H13.135C13.6753 12.4396 14.1542 12.0917 14.3212 11.5778L16.7753 4.02479Z" fill="#003049"/>
</g>
</svg>
