<svg width="21" height="21" viewBox="0 0 21 21" fill="none" xmlns="http://www.w3.org/2000/svg">
<g id="uil:calender">
<path id="Vector" d="M16.0846 3.75065H14.418V2.91732C14.418 2.6963 14.3302 2.48434 14.1739 2.32806C14.0176 2.17178 13.8056 2.08398 13.5846 2.08398C13.3636 2.08398 13.1517 2.17178 12.9954 2.32806C12.8391 2.48434 12.7513 2.6963 12.7513 2.91732V3.75065H7.7513V2.91732C7.7513 2.6963 7.6635 2.48434 7.50722 2.32806C7.35094 2.17178 7.13898 2.08398 6.91797 2.08398C6.69695 2.08398 6.48499 2.17178 6.32871 2.32806C6.17243 2.48434 6.08464 2.6963 6.08464 2.91732V3.75065H4.41797C3.75493 3.75065 3.11904 4.01404 2.6502 4.48288C2.18136 4.95173 1.91797 5.58761 1.91797 6.25065V16.2507C1.91797 16.9137 2.18136 17.5496 2.6502 18.0184C3.11904 18.4873 3.75493 18.7507 4.41797 18.7507H16.0846C16.7477 18.7507 17.3836 18.4873 17.8524 18.0184C18.3212 17.5496 18.5846 16.9137 18.5846 16.2507V6.25065C18.5846 5.58761 18.3212 4.95173 17.8524 4.48288C17.3836 4.01404 16.7477 3.75065 16.0846 3.75065ZM16.918 16.2507C16.918 16.4717 16.8302 16.6836 16.6739 16.8399C16.5176 16.9962 16.3056 17.084 16.0846 17.084H4.41797C4.19695 17.084 3.98499 16.9962 3.82871 16.8399C3.67243 16.6836 3.58464 16.4717 3.58464 16.2507V10.4173H16.918V16.2507ZM16.918 8.75065H3.58464V6.25065C3.58464 6.02964 3.67243 5.81768 3.82871 5.6614C3.98499 5.50512 4.19695 5.41732 4.41797 5.41732H6.08464V6.25065C6.08464 6.47166 6.17243 6.68363 6.32871 6.83991C6.48499 6.99619 6.69695 7.08398 6.91797 7.08398C7.13898 7.08398 7.35094 6.99619 7.50722 6.83991C7.6635 6.68363 7.7513 6.47166 7.7513 6.25065V5.41732H12.7513V6.25065C12.7513 6.47166 12.8391 6.68363 12.9954 6.83991C13.1517 6.99619 13.3636 7.08398 13.5846 7.08398C13.8056 7.08398 14.0176 6.99619 14.1739 6.83991C14.3302 6.68363 14.418 6.47166 14.418 6.25065V5.41732H16.0846C16.3056 5.41732 16.5176 5.50512 16.6739 5.6614C16.8302 5.81768 16.918 6.02964 16.918 6.25065V8.75065Z" fill="#0D0D0D"/>
</g>
</svg>
