<svg width="203" height="193" viewBox="0 0 203 193" fill="none" xmlns="http://www.w3.org/2000/svg">
<path id="Vector" d="M198.794 86.0641C194.983 81.8161 193.771 75.9793 195.58 70.6776C198.144 63.1684 194.579 54.9901 187.203 51.4111C181.969 48.869 178.51 43.9352 178.053 38.366C177.403 30.4888 170.835 24.2339 162.563 23.6151C156.715 23.1802 151.534 19.8688 148.865 14.9016C145.107 7.86064 136.519 4.4823 128.633 6.92407C123.049 8.64669 116.937 7.4927 112.476 3.8635C106.171 -1.27091 96.881 -1.27091 90.5762 3.8635C86.1155 7.4927 79.9863 8.64669 74.4191 6.92407C66.5337 4.4823 57.9459 7.87736 54.1876 14.9016C51.5181 19.8855 46.3373 23.1802 40.4891 23.6151C32.2174 24.2339 25.6492 30.4888 24.9994 38.366C24.5427 43.9352 21.0655 48.869 15.8495 51.4111C8.45586 54.9901 4.90831 63.1684 7.47238 70.6776C9.28128 75.996 8.06949 81.8161 4.25852 86.0641C-1.13305 92.0682 -1.13305 100.915 4.25852 106.919C8.06949 111.167 9.28128 117.004 7.47238 122.306C4.90831 129.815 8.47342 137.993 15.8495 141.573C21.083 144.115 24.5427 149.048 24.9994 154.618C25.6492 162.495 32.2174 168.75 40.4891 169.369C46.3373 169.803 51.5181 173.115 54.1876 178.082C57.9459 185.123 66.5337 188.501 74.4191 186.06C80.0039 184.337 86.1155 185.491 90.5762 189.12C96.881 194.255 106.171 194.255 112.476 189.12C116.937 185.491 123.066 184.337 128.633 186.06C136.519 188.501 145.107 185.123 148.865 178.082C151.534 173.098 156.715 169.803 162.563 169.369C170.835 168.75 177.403 162.495 178.053 154.618C178.51 149.048 181.987 144.115 187.203 141.573C194.597 137.993 198.144 129.815 195.58 122.306C193.771 116.988 194.983 111.167 198.794 106.919C204.185 100.915 204.185 92.0682 198.794 86.0641ZM101.5 177.865C54.3808 177.865 16.0603 141.355 16.0603 96.4834C16.0603 51.6118 54.3808 15.119 101.5 15.119C148.619 15.119 186.94 51.6285 186.94 96.4834C186.94 141.338 148.601 177.865 101.5 177.865Z" fill="#F6FFC6"/>
</svg>
