<svg width="58" height="68" viewBox="0 0 58 68" fill="none" xmlns="http://www.w3.org/2000/svg">
<path id="Vector 4" d="M32 65.9181H30.5V67.4526L32.0341 67.4177L32 65.9181ZM32 9.41797H33.5V7.91797H32V9.41797ZM0.5 9.41797L15.5 18.0782V0.757714L0.5 9.41797ZM57.2466 64.4385C56.5128 64.3162 54.9832 64.2573 53.1378 64.2261C51.238 64.1941 48.8626 64.191 46.3413 64.2056C41.297 64.2349 35.6381 64.335 31.9659 64.4185L32.0341 67.4177C35.6952 67.3345 41.3363 67.2347 46.3587 67.2056C48.8707 67.191 51.2204 67.1942 53.0872 67.2257C55.0085 67.2581 56.2872 67.32 56.7534 67.3977L57.2466 64.4385ZM33.5 65.9181V9.41797H30.5V65.9181H33.5ZM32 7.91797H14V10.918H32V7.91797Z" fill="#B8FCB1"/>
</svg>
